<?xml version="1.0" standalone="no"?>
<!DOCTYPE svg PUBLIC "-//W3C//DTD SVG 20010904//EN"
 "http://www.w3.org/TR/2001/REC-SVG-20010904/DTD/svg10.dtd">
<svg version="1.0" xmlns="http://www.w3.org/2000/svg"
 width="999.000000pt" height="910.000000pt" viewBox="0 0 999.000000 910.000000"
 preserveAspectRatio="xMidYMid meet">

<g transform="translate(0.000000,910.000000) scale(0.100000,-0.100000)"
fill="#000000" stroke="none">
<path d="M2765 9080 c-3 -5 11 -56 31 -112 218 -614 259 -794 258 -1143 -1
-313 -57 -539 -193 -776 -94 -164 -538 -790 -1241 -1749 -633 -863 -803 -1104
-988 -1400 -361 -580 -521 -1007 -557 -1485 l-6 -80 79 150 c268 512 602 957
1072 1425 290 290 509 482 995 870 127 102 273 220 325 264 586 490 957 1034
1105 1616 162 638 11 1330 -418 1925 -159 220 -443 525 -462 495z"/>
<path d="M3564 8258 c55 -103 125 -271 165 -403 109 -358 118 -722 26 -1080
-13 -49 -22 -92 -19 -94 3 -3 591 -3 1307 0 1880 6 1892 6 2027 -15 308 -47
542 -137 737 -286 243 -184 373 -435 373 -720 0 -255 -102 -486 -304 -685
-265 -263 -674 -424 -1146 -450 -107 -6 -1712 -35 -1936 -35 -93 0 -124 -3
-124 -12 0 -7 145 -350 322 -761 l321 -748 476 3 c471 3 477 3 555 -20 167
-48 301 -135 391 -254 195 -257 217 -646 55 -973 -105 -211 -263 -350 -455
-400 -53 -15 -357 -18 -2693 -34 -2259 -15 -2635 -19 -2643 -32 -28 -42 -113
-198 -161 -294 -114 -228 -174 -411 -242 -740 l-44 -218 3291 6 c3497 7 3366
5 3642 52 471 80 885 254 1181 496 166 136 335 348 422 532 98 206 142 406
142 650 0 293 -63 544 -208 832 -115 230 -246 409 -456 622 l-139 143 34 12
c77 27 291 140 384 203 841 569 1295 1726 1080 2755 -141 680 -562 1263 -1207
1672 -133 85 -372 209 -530 277 l-116 50 -1964 15 c-1080 9 -2104 16 -2276 16
l-313 0 45 -82z m4174 -5790 l2 -218 60 0 60 0 0 -155 0 -155 -60 0 -60 0 0
-230 0 -230 -225 0 -225 0 0 605 0 605 223 -2 222 -3 3 -217z m652 -383 l0
-605 -220 0 -220 0 0 605 0 605 220 0 220 0 0 -605z m-6966 -1147 c3 -29 11
-132 17 -228 11 -167 19 -228 19 -144 0 35 20 239 36 372 l6 53 92 -3 91 -3
13 -195 c14 -204 29 -304 31 -202 1 58 28 331 37 375 6 27 6 27 91 27 l86 0
-6 -47 c-4 -27 -20 -185 -37 -353 -17 -168 -33 -315 -36 -327 -4 -22 -8 -23
-113 -23 l-108 0 -16 102 c-9 57 -20 136 -23 177 -9 97 -17 74 -39 -122 l-19
-158 -110 3 -111 3 -37 350 c-20 193 -37 360 -37 373 -1 21 2 22 83 22 l84 0
6 -52z m1456 50 c0 -18 41 -312 43 -315 2 -2 7 29 11 69 3 40 11 112 18 161
l11 87 113 0 114 0 0 -375 0 -375 -75 0 -75 0 0 227 c0 124 -2 224 -5 222 -4
-4 -55 -409 -55 -437 0 -8 -20 -12 -55 -12 -30 0 -55 1 -56 3 0 1 -13 94 -28
207 l-29 205 -1 -207 -1 -208 -80 0 -80 0 0 375 0 375 115 0 c63 0 115 -1 115
-2z m1072 -140 l3 -143 19 73 20 72 72 0 73 0 -20 -72 c-11 -40 -26 -94 -34
-120 -13 -45 -12 -56 26 -215 22 -92 42 -176 45 -186 5 -16 -2 -18 -77 -15
l-84 3 -21 110 -22 110 -1 -112 -1 -113 -85 0 -85 0 0 375 0 375 85 0 84 0 3
-142z m1208 67 l0 -74 -57 -3 -58 -3 -3 -67 -3 -68 56 0 55 0 0 -75 0 -75 -55
0 -55 0 0 -155 0 -155 -85 0 -85 0 0 375 0 375 145 0 145 0 0 -75z m758 -27
c3 -40 6 -48 23 -48 16 0 19 -7 19 -50 0 -44 -3 -50 -20 -50 -20 0 -20 -5 -18
-197 3 -197 3 -198 26 -201 19 -3 22 -9 22 -53 l0 -49 -70 0 c-143 0 -150 13
-150 290 0 203 -1 210 -20 210 -17 0 -20 7 -20 50 0 43 3 50 20 50 17 0 20 7
20 50 l0 51 83 -3 82 -3 3 -47z m-3669 -29 c104 -24 142 -84 144 -228 l2 -96
-107 -3 -108 -3 0 -90 c0 -72 3 -91 16 -96 26 -10 36 12 42 87 l5 71 76 -3 76
-3 -2 -75 c-2 -63 -6 -80 -30 -115 -37 -52 -84 -75 -153 -75 -98 0 -171 52
-190 136 -13 56 -12 317 1 371 15 59 65 109 121 121 57 13 56 13 107 1z m1345
-18 c16 -9 38 -29 50 -44 20 -27 21 -42 24 -293 l3 -264 -81 0 c-74 0 -80 1
-80 21 0 20 -1 20 -31 -5 -51 -43 -136 -30 -165 25 -9 19 -14 60 -14 122 0
116 7 127 119 182 l82 39 -3 61 c-2 47 -7 61 -20 63 -14 3 -18 -9 -24 -67 l-7
-71 -73 0 -74 0 0 66 c0 81 20 126 68 156 63 39 165 43 226 9z m916 4 c72 -37
100 -102 100 -232 l0 -83 -105 0 -106 0 3 -92 c3 -85 5 -93 23 -93 18 0 20 8
23 78 l3 77 79 0 80 0 0 -68 c0 -131 -65 -202 -186 -202 -82 0 -140 30 -171
90 -22 40 -23 55 -23 220 0 106 5 191 11 211 13 37 43 75 74 92 50 27 143 28
195 2z m2300 -89 l0 -104 -35 -6 c-60 -12 -65 -29 -65 -228 l0 -178 -85 0 -85
0 0 305 0 305 86 0 86 0 -7 -32 -7 -32 34 37 c20 20 45 37 57 37 20 0 21 -5
21 -104z m347 93 c76 -29 105 -84 111 -216 l5 -103 -112 0 -111 0 0 -57 c0
-91 10 -133 30 -133 24 0 30 20 30 96 l0 64 80 0 80 0 0 -63 c0 -131 -70 -207
-192 -207 -76 0 -134 32 -166 91 -23 43 -23 50 -20 241 3 181 5 199 24 225 39
53 81 73 150 73 34 0 75 -5 91 -11z m-1737 -254 c0 -248 1 -255 20 -255 19 0
20 7 20 255 l0 255 85 0 85 0 0 -305 0 -305 -85 0 c-81 0 -85 1 -86 23 0 12
-3 16 -6 9 -8 -20 -59 -42 -97 -42 -25 0 -45 9 -68 29 l-33 29 -3 281 -3 281
86 0 85 0 0 -255z m790 23 c0 -128 3 -243 6 -255 4 -14 14 -23 25 -23 18 0 19
12 19 255 l0 255 85 0 85 0 0 -305 0 -305 -85 0 c-81 0 -85 1 -86 23 0 12 -3
16 -6 9 -14 -35 -98 -53 -146 -31 -54 24 -57 44 -57 338 l0 271 80 0 80 0 0
-232z"/>
<path d="M2187 743 c-4 -3 -7 -28 -7 -55 0 -45 2 -48 25 -48 22 0 25 4 25 39
0 22 -3 46 -6 55 -6 16 -26 21 -37 9z"/>
<path d="M3478 503 c-34 -39 -31 -163 3 -163 17 0 19 9 19 90 0 50 -2 90 -3
90 -2 0 -11 -8 -19 -17z"/>
<path d="M4400 695 c0 -48 2 -55 20 -55 18 0 20 7 20 55 0 48 -2 55 -20 55
-18 0 -20 -7 -20 -55z"/>
<path d="M7060 733 c0 -10 -3 -35 -6 -55 -6 -36 -5 -38 20 -38 25 0 26 2 26
55 0 48 -2 55 -20 55 -12 0 -20 -7 -20 -17z"/>
<path d="M1668 8214 c-137 -33 -281 -144 -341 -265 -104 -208 -65 -452 97
-615 234 -234 627 -190 808 90 107 167 107 396 0 562 -123 189 -349 281 -564
228z"/>
<path d="M4042 6655 c-95 -412 -152 -579 -263 -775 -177 -315 -397 -545 -1149
-1206 -1453 -1275 -1859 -1683 -2175 -2185 -401 -638 -446 -1201 -149 -1877
56 -127 184 -372 194 -372 3 0 20 64 39 142 86 366 248 775 427 1074 252 422
571 754 1139 1186 392 297 647 535 901 840 435 522 742 1124 903 1766 100 402
146 799 139 1212 -2 113 -4 201 -6 195z"/>
<path d="M5630 2718 c-234 -33 -456 -182 -550 -368 -46 -91 -63 -165 -63 -270
0 -173 50 -291 182 -420 98 -97 200 -155 336 -192 111 -29 345 -32 455 -4 268
67 447 244 509 505 11 47 19 86 18 87 -1 1 -102 5 -224 9 -191 6 -223 5 -223
-7 0 -41 -34 -120 -70 -160 -58 -66 -122 -91 -235 -92 -105 -1 -165 21 -228
82 -62 59 -81 105 -81 192 0 114 50 198 150 249 89 46 218 48 309 5 42 -20
123 -106 132 -142 l6 -25 146 7 c80 4 184 9 229 13 l84 6 -6 31 c-3 17 -27 73
-52 125 -78 159 -208 271 -386 332 -136 46 -287 59 -438 37z"/>
<path d="M2300 2520 l0 -180 165 0 165 0 0 -435 0 -435 210 0 210 0 0 435 0
435 165 0 165 0 0 180 0 180 -540 0 -540 0 0 -180z"/>
<path d="M4110 2689 c-145 -21 -249 -88 -302 -196 l-33 -68 -3 -300 c-4 -312
2 -385 38 -455 26 -50 87 -108 145 -138 96 -48 135 -54 393 -59 l242 -5 0 175
0 175 -190 4 c-108 2 -193 7 -199 13 -21 22 -22 61 -3 86 20 24 24 24 196 27
l176 4 0 134 0 134 -144 0 c-140 0 -192 8 -208 33 -13 21 -9 46 12 67 18 18
33 20 190 20 l170 0 0 180 0 180 -212 -1 c-117 -1 -238 -5 -268 -10z"/>
</g>
</svg>
